<svg width="96" height="96" viewBox="0 0 96 96" fill="none" xmlns="http://www.w3.org/2000/svg">
<rect width="96" height="96" rx="32" fill="#E65689" fill-opacity="0.24"/>
<path d="M51.4698 68.616V56.584C51.4698 53.768 50.8298 52.424 47.9498 52.424H45.4538V47.88H48.2058C50.8298 47.88 51.4058 46.472 51.4058 43.72V32.84C51.4058 29.96 50.6378 28.68 48.0138 28.68C45.4538 28.68 44.6858 29.96 44.6858 32.84V42.12H39.8858V32.84C39.8858 26.44 42.3818 23.752 48.0138 23.752C53.6458 23.752 56.0778 26.44 56.0778 32.904V44.232C56.0778 47.624 54.7978 49.224 52.3018 50.184C54.6698 50.76 56.2058 52.296 56.2058 56.136V68.616C56.2058 73.992 53.6458 77.576 48.0138 77.576C42.3818 77.576 39.7578 74.056 39.7578 68.68V58.312H44.6858V68.68C44.6858 71.24 45.6458 72.776 48.0138 72.776C50.5098 72.776 51.4698 71.24 51.4698 68.616Z" fill="#E65689"/>
</svg>
