<svg width="96" height="96" viewBox="0 0 96 96" fill="none" xmlns="http://www.w3.org/2000/svg">
<rect width="96" height="96" rx="32" fill="#E65689" fill-opacity="0.24"/>
<g clip-path="url(#clip0_211_195)">
<path d="M54 64H34C31.3488 63.9968 28.8071 62.9422 26.9324 61.0676C25.0578 59.1929 24.0032 56.6512 24 54V34C24.0032 31.3488 25.0578 28.8071 26.9324 26.9324C28.8071 25.0578 31.3488 24.0032 34 24H54C56.6512 24.0032 59.1929 25.0578 61.0676 26.9324C62.9422 28.8071 63.9968 31.3488 64 34V54C63.9968 56.6512 62.9422 59.1929 61.0676 61.0676C59.1929 62.9422 56.6512 63.9968 54 64ZM72 62V36C72 35.4696 71.7893 34.9609 71.4142 34.5858C71.0391 34.2107 70.5304 34 70 34C69.4696 34 68.9609 34.2107 68.5858 34.5858C68.2107 34.9609 68 35.4696 68 36V62C68 63.5913 67.3679 65.1174 66.2426 66.2426C65.1174 67.3679 63.5913 68 62 68H36C35.4696 68 34.9609 68.2107 34.5858 68.5858C34.2107 68.9609 34 69.4696 34 70C34 70.5304 34.2107 71.0391 34.5858 71.4142C34.9609 71.7893 35.4696 72 36 72H62C64.6512 71.9968 67.1929 70.9422 69.0676 69.0676C70.9422 67.1929 71.9968 64.6512 72 62Z" fill="#E65689"/>
</g>
<defs>
<clipPath id="clip0_211_195">
<rect width="48" height="48" fill="white" transform="translate(24 24)"/>
</clipPath>
</defs>
</svg>
