<svg width="96" height="96" viewBox="0 0 96 96" fill="none" xmlns="http://www.w3.org/2000/svg">
<rect width="96" height="96" rx="32" fill="#E65689" fill-opacity="0.24"/>
<g clip-path="url(#clip0_211_231)">
<path d="M54 48C54 51.308 51.308 54 48 54C44.692 54 42 51.308 42 48C42 44.692 44.692 42 48 42C51.308 42 54 44.692 54 48ZM72 48C72 49.106 71.104 50 70 50H67.9C66.958 59.434 59.434 66.96 50 67.9V70C50 71.106 49.104 72 48 72C46.896 72 46 71.106 46 70V67.9C36.566 66.958 29.04 59.434 28.1 50H26C24.896 50 24 49.106 24 48C24 46.894 24.896 46 26 46H28.1C29.04 36.566 36.566 29.04 46 28.1V26C46 24.894 46.896 24 48 24C49.104 24 50 24.894 50 26V28.1C59.434 29.042 66.96 36.566 67.9 46H70C71.104 46 72 46.894 72 48ZM58 48C58 42.486 53.514 38 48 38C42.486 38 38 42.486 38 48C38 53.514 42.486 58 48 58C53.514 58 58 53.514 58 48Z" fill="#E65689"/>
</g>
<defs>
<clipPath id="clip0_211_231">
<rect width="48" height="48" fill="white" transform="translate(24 24)"/>
</clipPath>
</defs>
</svg>
