<svg width="96" height="96" viewBox="0 0 96 96" fill="none" xmlns="http://www.w3.org/2000/svg">
<rect width="96" height="96" rx="32" fill="#E65689" fill-opacity="0.24"/>
<path d="M65.9993 66.9998V71.9998H29.9993V66.9998C29.9993 62.0378 34.0373 57.9998 38.9993 57.9998H56.9993C61.9613 57.9998 65.9993 62.0378 65.9993 66.9998ZM37.7433 32.0538C40.8013 29.1878 44.8053 27.7718 49.0033 28.0318C56.8513 28.5398 63.0013 35.3698 63.0013 43.5798C63.0013 47.1198 60.1233 49.9978 56.5833 49.9978H51.7713C51.2833 48.3398 49.7673 47.1198 47.9513 47.1198C45.7413 47.1198 43.9513 48.9098 43.9513 51.1198C43.9513 53.3298 45.7413 55.1198 47.9513 55.1198C49.0273 55.1198 50.0013 54.6898 50.7193 53.9978H56.5833C62.3273 53.9978 67.0013 49.3238 67.0013 43.5798C66.9993 33.2678 59.2073 24.6838 49.2593 24.0418C43.9313 23.6958 38.8773 25.5058 35.0073 29.1378C31.4333 32.4878 29.2853 37.1298 29.0273 42.0018H33.0333C33.2793 38.1958 34.9293 34.6918 37.7433 32.0538ZM54.1993 45.9998H56.9353C57.9373 45.9998 58.8133 45.2638 58.9293 44.2678C59.0653 43.0938 59.0153 41.8638 58.7473 40.6058C57.8593 36.4478 54.4853 33.0938 50.3213 32.2378C43.2473 30.7838 37.0033 36.1778 37.0033 42.9998C37.0033 45.9378 38.1613 48.6098 40.0433 50.5838C40.2633 46.3618 43.7253 42.9978 48.0013 42.9978C50.5173 42.9978 52.7333 44.1818 54.1993 45.9978V45.9998Z" fill="#E65689"/>
</svg>
