<svg width="96" height="96" viewBox="0 0 96 96" fill="none" xmlns="http://www.w3.org/2000/svg">
<rect width="96" height="96" rx="32" fill="#E65689" fill-opacity="0.24"/>
<g clip-path="url(#clip0_211_411)">
<path d="M50 23.9922H34C28.486 23.9922 24 28.4782 24 33.9922V59.7002C24 61.2862 24.87 62.7382 26.268 63.4882C26.904 63.8302 27.602 63.9982 28.298 63.9982C29.13 63.9982 29.96 63.7562 30.68 63.2782L38.606 57.9922H50C55.514 57.9922 60 53.5062 60 47.9922V33.9922C60 28.4782 55.514 23.9922 50 23.9922ZM72 41.9922V67.7002C72 69.2862 71.13 70.7382 69.732 71.4882C69.096 71.8302 68.398 71.9982 67.702 72.0002C66.87 72.0002 66.04 71.7582 65.322 71.2802L57.394 65.9922H46C43.1 65.9922 40.506 64.7302 38.678 62.7522L39.816 61.9922H50C57.718 61.9922 64 55.7102 64 47.9922V33.9922C64 33.3762 63.946 32.7762 63.87 32.1802C68.492 33.0602 72 37.1182 72 41.9922Z" fill="#E65689"/>
</g>
<defs>
<clipPath id="clip0_211_411">
<rect width="48" height="48" fill="white" transform="translate(24 24)"/>
</clipPath>
</defs>
</svg>
