<svg width="96" height="96" viewBox="0 0 96 96" fill="none" xmlns="http://www.w3.org/2000/svg">
<rect width="96" height="96" rx="32" fill="#E65689" fill-opacity="0.24"/>
<g clip-path="url(#clip0_211_292)">
<path d="M66.0008 48C66.0003 46.8965 65.8999 45.7954 65.7008 44.71L71.7868 41.2L65.7868 30.8L59.6988 34.318C58.0179 32.8799 56.0863 31.7639 54.0008 31.026V24H42.0008V31.026C39.9154 31.7639 37.9837 32.8799 36.3028 34.318L30.2148 30.8L24.2148 41.2L30.3008 44.71C29.9011 46.8851 29.9011 49.1149 30.3008 51.29L24.2148 54.8L30.2148 65.2L36.3028 61.684C37.9839 63.1214 39.9155 64.2367 42.0008 64.974V72H54.0008V64.974C56.0863 64.2361 58.0179 63.1201 59.6988 61.682L65.7868 65.2L71.7868 54.8L65.7008 51.29C65.8999 50.2046 66.0003 49.1035 66.0008 48ZM54.0008 48C54.0008 49.1867 53.6489 50.3467 52.9897 51.3334C52.3304 52.3201 51.3933 53.0892 50.2969 53.5433C49.2006 53.9974 47.9942 54.1162 46.8303 53.8847C45.6664 53.6532 44.5973 53.0818 43.7582 52.2426C42.9191 51.4035 42.3476 50.3344 42.1161 49.1705C41.8846 48.0067 42.0034 46.8003 42.4576 45.7039C42.9117 44.6075 43.6807 43.6705 44.6674 43.0112C45.6541 42.3519 46.8142 42 48.0008 42C49.5921 42 51.1183 42.6321 52.2435 43.7574C53.3687 44.8826 54.0008 46.4087 54.0008 48Z" fill="#E65689"/>
</g>
<defs>
<clipPath id="clip0_211_292">
<rect width="48" height="48" fill="white" transform="translate(24 24)"/>
</clipPath>
</defs>
</svg>
