<svg width="96" height="96" viewBox="0 0 96 96" fill="none" xmlns="http://www.w3.org/2000/svg">
<rect width="96" height="96" rx="32" fill="#E65689" fill-opacity="0.24"/>
<path d="M68.3883 42.0457L50.3542 24.0117L33.8003 25.8057L34.2302 29.7817L48.8802 28.1957L65.5603 44.8737C66.1523 45.4657 66.1523 46.4277 65.5363 47.0417L63.6123 49.0297L46.1982 31.6157L27.9243 34.1137L25.9062 52.3597L43.9322 70.3837C44.9742 71.4257 46.3582 71.9997 47.8323 71.9997C49.3063 71.9997 50.6923 71.4257 51.7563 70.3617L64.2443 57.4637C65.5743 56.1337 66.0763 54.2877 65.7623 52.5617L68.3903 49.8477C70.5403 47.6957 70.5383 44.1957 68.3883 42.0457ZM36.0002 43.9997C34.8962 43.9997 34.0002 43.1037 34.0002 41.9997C34.0002 40.8957 34.8962 39.9997 36.0002 39.9997C37.1042 39.9997 38.0002 40.8957 38.0002 41.9997C38.0002 43.1037 37.1042 43.9997 36.0002 43.9997Z" fill="#E65689"/>
</svg>
