<svg width="96" height="96" viewBox="0 0 96 96" fill="none" xmlns="http://www.w3.org/2000/svg">
<rect width="96" height="96" rx="32" fill="#E65689" fill-opacity="0.24"/>
<g clip-path="url(#clip0_211_260)">
<path d="M46.4578 31.2978L64.7078 49.5478L59.6258 63.6878L26.8358 71.9998L42.9698 55.8658C43.2978 55.9538 43.6418 55.9998 43.9978 55.9998C46.2078 55.9998 47.9978 54.2098 47.9978 51.9998C47.9978 49.7898 46.2078 47.9998 43.9978 47.9998C41.7878 47.9998 39.9978 49.7898 39.9978 51.9998C39.9978 52.3598 40.0458 52.7098 40.1358 53.0418L24.0078 69.1718L32.2958 36.3818L46.4598 31.2978H46.4578ZM55.9978 24.0098L50.4118 29.5958L66.4118 45.5958L71.9978 40.0098L55.9978 24.0098Z" fill="#E65689"/>
</g>
<defs>
<clipPath id="clip0_211_260">
<rect width="48" height="48" fill="white" transform="translate(24 24)"/>
</clipPath>
</defs>
</svg>
