<svg width="96" height="96" viewBox="0 0 96 96" fill="none" xmlns="http://www.w3.org/2000/svg">
<rect width="96" height="96" rx="32" fill="#E65689" fill-opacity="0.24"/>
<g clip-path="url(#clip0_211_361)">
<path d="M62 24H34C28.48 24 24 28.48 24 34V62C24 67.52 28.48 72 34 72H62C67.52 72 72 67.52 72 62V34C72 28.48 67.52 24 62 24ZM36 34H48C49.1 34 50 34.9 50 36C50 37.1 49.1 38 48 38H36C34.9 38 34 37.1 34 36C34 34.9 34.9 34 36 34ZM36 42H54C55.1 42 56 42.9 56 44C56 45.1 55.1 46 54 46H36C34.9 46 34 45.1 34 44C34 42.9 34.9 42 36 42ZM42 62H36C34.9 62 34 61.1 34 60C34 58.9 34.9 58 36 58H42C43.1 58 44 58.9 44 60C44 61.1 43.1 62 42 62ZM60 54H36C34.9 54 34 53.1 34 52C34 50.9 34.9 50 36 50H60C61.1 50 62 50.9 62 52C62 53.1 61.1 54 60 54Z" fill="#E65689"/>
</g>
<defs>
<clipPath id="clip0_211_361">
<rect width="48" height="48" fill="white" transform="translate(24 24)"/>
</clipPath>
</defs>
</svg>
