<svg width="96" height="96" viewBox="0 0 96 96" fill="none" xmlns="http://www.w3.org/2000/svg">
<rect width="96" height="96" rx="32" fill="#E65689" fill-opacity="0.24"/>
<g clip-path="url(#clip0_211_209)">
<path d="M61.162 28.2805L48.632 24.1025C48.2217 23.9658 47.7783 23.9658 47.368 24.1025L34.838 28.2805C32.8458 28.9422 31.1128 30.215 29.8853 31.9179C28.6577 33.6208 27.9981 35.6673 28 37.7665V48.0005C28 63.1265 46.4 71.4805 47.188 71.8285C47.4436 71.9421 47.7203 72.0007 48 72.0007C48.2797 72.0007 48.5564 71.9421 48.812 71.8285C49.6 71.4805 68 63.1265 68 48.0005V37.7665C68.0019 35.6673 67.3423 33.6208 66.1147 31.9179C64.8872 30.215 63.1542 28.9422 61.162 28.2805ZM57.436 43.4345L48.892 51.9785C48.5424 52.3305 48.1263 52.6095 47.668 52.7993C47.2096 52.9892 46.7181 53.0861 46.222 53.0845H46.156C45.6498 53.0767 45.1504 52.9664 44.688 52.7601C44.2257 52.5539 43.81 52.256 43.466 51.8845L38.854 47.0845C38.6543 46.8992 38.4945 46.675 38.3845 46.4257C38.2745 46.1764 38.2166 45.9073 38.2144 45.6349C38.2121 45.3624 38.2656 45.0924 38.3714 44.8413C38.4773 44.5903 38.6333 44.3635 38.8299 44.1749C39.0266 43.9863 39.2597 43.8399 39.515 43.7446C39.7702 43.6493 40.0423 43.6072 40.3144 43.6208C40.5865 43.6345 40.853 43.7036 41.0974 43.8239C41.3419 43.9442 41.5592 44.1132 41.736 44.3205L46.224 49.0005L54.6 40.6005C54.9772 40.2362 55.4824 40.0346 56.0068 40.0391C56.5312 40.0437 57.0328 40.254 57.4036 40.6248C57.7745 40.9957 57.9848 41.4973 57.9894 42.0217C57.9939 42.5461 57.7923 43.0513 57.428 43.4285L57.436 43.4345Z" fill="#E65689"/>
</g>
<defs>
<clipPath id="clip0_211_209">
<rect width="48" height="48" fill="white" transform="translate(24 24)"/>
</clipPath>
</defs>
</svg>
