<svg width="96" height="96" viewBox="0 0 96 96" fill="none" xmlns="http://www.w3.org/2000/svg">
<rect width="96" height="96" rx="32" fill="#E65689" fill-opacity="0.24"/>
<g clip-path="url(#clip0_211_302)">
<path d="M48.9592 52.53V45.972H71.0572C71.2732 47.114 71.3852 48.466 71.3852 49.93C71.3852 54.85 70.0412 60.934 65.7052 65.268C61.4892 69.658 56.1032 72 48.9672 72C35.7392 72 24.6172 61.226 24.6172 48C24.6172 34.774 35.7392 24 48.9672 24C56.2852 24 61.4972 26.872 65.4132 30.614L60.7852 35.24C57.9772 32.606 54.1712 30.558 48.9592 30.558C39.3012 30.558 31.7472 38.342 31.7472 48C31.7472 57.658 39.3012 65.442 48.9592 65.442C55.2232 65.442 58.7912 62.926 61.0772 60.64C62.9312 58.786 64.1512 56.138 64.6312 52.522L48.9592 52.53Z" fill="#E65689"/>
</g>
<defs>
<clipPath id="clip0_211_302">
<rect width="48" height="48" fill="white" transform="translate(24 24)"/>
</clipPath>
</defs>
</svg>
