<svg width="96" height="96" viewBox="0 0 96 96" fill="none" xmlns="http://www.w3.org/2000/svg">
<rect width="96" height="96" rx="32" fill="#E65689" fill-opacity="0.24"/>
<path d="M30 31C30 29.894 30.896 29 32 29H36.98C38.458 26.05 41.48 24 45 24H51C54.52 24 57.542 26.05 59.02 29H64C65.104 29 66 29.894 66 31C66 32.106 65.104 33 64 33H60V38H36V33H32C30.896 33 30 32.106 30 31ZM64 63H60V58H36V63H32C30.896 63 30 63.894 30 65C30 66.106 30.896 67 32 67H36.98C38.458 69.95 41.48 72 45 72H51C54.52 72 57.542 69.95 59.02 67H64C65.104 67 66 66.106 66 65C66 63.894 65.104 63 64 63ZM32 50H36V54H60V50H64C65.104 50 66 49.106 66 48C66 46.894 65.104 46 64 46H60V42H36V46H32C30.896 46 30 46.894 30 48C30 49.106 30.896 50 32 50Z" fill="#E65689"/>
</svg>
