<svg width="48" height="48" viewBox="0 0 48 48" fill="none" xmlns="http://www.w3.org/2000/svg">
<path fill-rule="evenodd" clip-rule="evenodd" d="M27.9609 12.5423L30.338 14.9154L30.3341 14.9192L15.0969 30.1495C13.4304 31.8168 11.207 32.7362 8.8416 32.7362C6.47616 32.7362 4.2528 31.8168 2.58624 30.1495C-0.862081 26.7005 -0.862081 21.0922 2.58624 17.6433L15.7344 4.49988L18.1113 6.87293L4.9632 20.0163C2.82432 22.1528 2.82432 25.6323 4.9632 27.7726C7.10208 29.913 10.585 29.913 12.7238 27.7726L27.9609 12.5423ZM25.2116 9.8488L10.0436 25.102L7.68199 22.7251L22.85 7.47193C24.5088 5.80087 26.7207 4.88141 29.0747 4.88141C31.4286 4.88141 33.6404 5.80087 35.2992 7.47193L36.482 8.65847L34.1166 11.0353L32.9339 9.8488C31.9047 8.81107 30.5376 8.24261 29.0747 8.24261C27.6116 8.24261 26.2407 8.81107 25.2116 9.8488ZM45.4137 17.7692C43.7472 16.1019 41.5238 15.1825 39.1584 15.1825C36.7929 15.1825 34.5696 16.1019 32.903 17.7692L17.6658 32.9994L20.039 35.3726L35.2761 20.1423C37.415 18.0019 40.898 18.0058 43.0368 20.1423C44.0697 21.1761 44.642 22.5535 44.642 24.0223C44.642 25.4912 44.0736 26.8684 43.0368 27.9023L29.8886 41.0458L32.2656 43.4188L45.4137 30.2755C48.8621 26.8265 48.8621 21.2181 45.4137 17.7692ZM37.9584 22.8149L37.9602 22.8129H37.9565L37.9584 22.8149ZM37.9584 22.8149L22.7922 38.066C20.661 40.2064 17.1974 40.2102 15.0662 38.066L13.8834 36.8795L11.518 39.2564L12.7008 40.4429C14.3597 42.114 16.5714 43.0335 18.9254 43.0335C21.2793 43.0335 23.4912 42.114 25.1501 40.4429L40.3181 25.1897L37.9584 22.8149Z" fill="#95B0D8"/>
</svg>
