<svg width="96" height="96" viewBox="0 0 96 96" fill="none" xmlns="http://www.w3.org/2000/svg">
<rect width="96" height="96" rx="32" fill="#E65689" fill-opacity="0.24"/>
<g clip-path="url(#clip0_211_282)">
<path d="M72 69.172L66.416 63.588C67.464 62.006 68.082 60.116 68.082 58.082C68.082 52.568 63.596 48.082 58.082 48.082C52.568 48.082 48.082 52.568 48.082 58.082C48.082 63.596 52.568 68.082 58.082 68.082C60.116 68.082 62.006 67.464 63.588 66.416L69.172 72L72 69.172ZM66 24H30C26.692 24 24 26.692 24 30V38H72V30C72 26.692 69.308 24 66 24ZM31 34C29.344 34 28 32.656 28 31C28 29.344 29.344 28 31 28C32.656 28 34 29.344 34 31C34 32.656 32.656 34 31 34ZM39 34C37.344 34 36 32.656 36 31C36 29.344 37.344 28 39 28C40.656 28 42 29.344 42 31C42 32.656 40.656 34 39 34ZM24 42H72V58C72 50.268 65.732 44 58 44C50.268 44 44 50.268 44 58C44 61.92 45.616 65.458 48.212 68H24V42Z" fill="#E65689"/>
</g>
<defs>
<clipPath id="clip0_211_282">
<rect width="48" height="48" fill="white" transform="translate(24 24)"/>
</clipPath>
</defs>
</svg>
