<svg width="96" height="96" viewBox="0 0 96 96" fill="none" xmlns="http://www.w3.org/2000/svg">
<rect width="96" height="96" rx="32" fill="#E65689" fill-opacity="0.24"/>
<path d="M56.301 77H39.853V67.336C39.853 61.192 40.301 58.632 44.589 52.936C50.285 45.384 51.437 43.528 51.437 38.536V32.904C51.437 30.088 50.285 28.68 47.981 28.68C45.357 28.68 44.653 30.152 44.653 32.968V42.056H39.853V32.968C39.853 26.504 42.349 23.752 47.981 23.752C53.613 23.752 56.301 26.568 56.301 32.968V38.856C56.301 44.616 54.253 48.456 50.477 53.384C45.165 60.04 44.717 62.024 44.717 67.336V72.2H56.301V77Z" fill="#E65689"/>
</svg>
