<svg width="96" height="96" viewBox="0 0 96 96" fill="none" xmlns="http://www.w3.org/2000/svg">
<rect width="96" height="96" rx="32" fill="#E65689" fill-opacity="0.24"/>
<g clip-path="url(#clip0_211_271)">
<path d="M48.2491 67.3601C48.1451 67.2761 48.0591 67.2201 47.9491 67.1281C46.5931 65.6921 44.4451 63.1741 42.5731 59.9561H45.7151L44.3471 55.9561H40.6011C39.6151 53.4881 38.9511 50.7821 38.9511 47.9561C38.9511 45.1301 39.6191 42.4261 40.6091 39.9561H55.2771C55.8651 41.4281 56.3571 42.9721 56.6431 44.5901L60.8491 46.0301C60.6671 43.9061 60.1911 41.8741 59.5431 39.9581H66.2691C67.2511 42.1961 67.8191 44.6481 67.9131 47.2221C67.9231 47.4681 67.9291 48.2861 67.9251 48.4521L71.8571 49.7981C71.9031 49.1881 71.9511 48.5801 71.9511 47.9601C71.9531 34.7221 61.1851 23.9561 47.9531 23.9561C34.7211 23.9561 23.9531 34.7221 23.9531 47.9561C23.9531 61.1901 34.7191 71.9561 47.9531 71.9561C48.5731 71.9561 49.1851 71.9241 49.7951 71.8781L48.2491 67.3601ZM42.5731 35.9561C44.4391 32.7501 46.5991 30.2201 47.9531 28.7841C49.3051 30.2161 51.4531 32.7541 53.3151 35.9561H42.5731ZM63.9131 35.9561H57.8751C56.4291 33.0541 54.6931 30.5781 53.1551 28.6661C57.5091 29.8421 61.2691 32.4481 63.9131 35.9561ZM42.7271 28.6721C41.1911 30.5781 39.4651 33.0681 38.0211 35.9561H31.9871C34.6271 32.4541 38.3831 29.8501 42.7271 28.6721ZM29.6331 39.9561H36.3531C35.5091 42.4461 34.9531 45.1301 34.9531 47.9561C34.9531 50.7821 35.5091 53.4661 36.3531 55.9561H29.6331C28.5571 53.5041 27.9511 50.8001 27.9511 47.9561C27.9511 45.1121 28.5571 42.4081 29.6331 39.9561ZM31.9891 59.9561H38.0231C39.4791 62.8701 41.2211 65.3341 42.7651 67.2501C38.4031 66.0761 34.6371 63.4681 31.9891 59.9561ZM72.0411 54.0861L59.8251 59.8341L54.0771 72.0461L44.7371 44.7441L72.0411 54.0861Z" fill="#E65689"/>
</g>
<defs>
<clipPath id="clip0_211_271">
<rect width="48" height="48" fill="white" transform="translate(24 24)"/>
</clipPath>
</defs>
</svg>
