<svg width="96" height="96" viewBox="0 0 96 96" fill="none" xmlns="http://www.w3.org/2000/svg">
<g clip-path="url(#clip0_211_330)">
<path d="M24 55.0061C24 50.0658 24 42.9551 24 38.0147C24 38.0147 24.9231 38.0147 26.4116 38.0147C29.9309 38.0044 33.4502 38.0147 36.9695 38.0147C38.6542 38.0147 39.5311 37.2396 39.5311 35.7306C39.5311 32.6094 39.5773 27.1214 39.5196 24.0001L42.1965 24C45.8428 24.0723 49.5005 24.0207 53.1583 24.0207C54.6122 24.0207 55.5353 24.0206 55.5353 24.0206C55.5468 27.1935 55.5353 32.4853 55.5353 35.6583C55.5353 37.2396 56.3892 38.0044 58.143 38.0044C61.8931 38.0044 65.6432 38.0044 69.3933 38.0044C70.5125 38.0044 72 38.0044 72 38.0044C71.9654 38.2318 70.9048 39.9371 70.7779 40.1438C66.9817 46.4071 63.1739 52.6703 59.3777 58.9335C58.7431 59.9877 58.4858 60.5045 58.4858 60.5045C54.2972 60.5045 45.2988 60.5236 41.1102 60.5236C41.1102 60.5236 41.7004 59.5433 42.4273 58.3444C45.9582 52.5153 49.4544 46.6758 53.0545 40.888C54.0468 39.286 53.216 38.3041 51.3583 38.3662C48.4621 38.4695 45.5543 38.3972 42.6466 38.3972C40.8234 38.3972 39.958 39.1826 39.958 40.8053C39.958 50.4379 39.958 60.0601 39.9696 69.6926C39.9696 70.5505 39.9696 71.9987 39.9696 71.9987C39.9696 71.9987 38.1118 71.9871 37.7311 71.9871C33.9002 72.0078 27.8309 71.9974 24 71.9974C24 71.9974 24 71.1706 24 69.982C24 64.99 24 59.9981 24 55.0061Z" fill="white"/>
</g>
<defs>
<clipPath id="clip0_211_330">
<rect width="48" height="48" fill="white" transform="translate(24 24)"/>
</clipPath>
</defs>
</svg>
